<?xml version="1.0" encoding="UTF-8"?>
<svg xmlns="http://www.w3.org/2000/svg" width="1760" height="1120" viewBox="0 0 1760 1120">
  <path id="howdy" fill="none" stroke="#000" stroke-width="18" stroke-linecap="round" stroke-linejoin="round" d="M 505.00 588.00 C 528.00,548.00 560.00,465.00 590.00,420.00 C 615.00,400.00 632.00,395.00 650.00,410.00 C 662.00,445.00 664.00,510.00 662.00,560.00 C 660.00,595.00 658.00,618.00 656.00,628.00 C 668.00,605.00 730.00,540.00 775.00,518.00 C 805.00,525.00 820.00,575.00 810.00,628.00 C 825.00,615.00 840.00,565.00 845.00,530.00 C 860.00,525.00 885.00,555.00 875.00,605.00 C 868.00,635.00 845.00,638.00 830.00,610.00 C 825.00,575.00 850.00,545.00 880.00,550.00 C 905.00,555.00 930.00,565.00 950.00,580.00 C 965.00,615.00 955.00,655.00 910.00,660.00 C 875.00,660.00 845.00,635.00 855.00,595.00 C 880.00,565.00 935.00,580.00 975.00,558.00 C 985.00,570.00 990.00,615.00 1010.00,642.00 C 1030.00,662.00 1047.00,605.00 1053.00,562.00 C 1060.00,540.00 1077.00,605.00 1103.00,642.00 C 1125.00,665.00 1147.00,605.00 1163.00,560.00 C 1180.00,555.00 1190.00,570.00 1197.00,595.00 C 1190.00,625.00 1210.00,650.00 1245.00,648.00 C 1275.00,645.00 1290.00,610.00 1283.00,570.00 C 1277.00,545.00 1250.00,530.00 1220.00,535.00 C 1195.00,540.00 1185.00,570.00 1200.00,600.00 C 1225.00,610.00 1255.00,580.00 1270.00,530.00 C 1280.00,490.00 1280.00,460.00 1273.00,450.00 C 1267.00,450.00 1270.00,500.00 1273.00,560.00 C 1275.00,605.00 1290.00,640.00 1315.00,642.00 C 1335.00,642.00 1353.00,662.00 1375.00,642.00 C 1393.00,628.00 1400.00,580.00 1390.00,558.00 C 1383.00,530.00 1397.00,585.00 1390.00,650.00 C 1385.00,700.00 1365.00,740.00 1330.00,748.00 C 1300.00,752.00 1293.00,710.00 1315.00,665.00 C 1333.00,630.00 1365.00,600.00 1400.00,588.00 C 1420.00,582.00 1430.00,585.00 1423.00,588.00"/>
</svg>
